<?xml version="1.0" standalone="no"?>
<!DOCTYPE svg PUBLIC "-//W3C//DTD SVG 20010904//EN"
 "http://www.w3.org/TR/2001/REC-SVG-20010904/DTD/svg10.dtd">
<svg version="1.0" xmlns="http://www.w3.org/2000/svg"
 width="256.000000pt" height="256.000000pt" viewBox="0 0 256.000000 256.000000"
 preserveAspectRatio="xMidYMid meet">
<metadata>
Created by potrace 1.16, written by Peter Selinger 2001-2019
</metadata>
<g transform="translate(0.000000,256.000000) scale(0.100000,-0.100000)"
fill="#000000" stroke="none">
<path d="M685 2369 c-22 -5 -56 -17 -75 -26 -41 -19 -124 -97 -118 -112 1 -6
28 -25 58 -43 49 -30 55 -36 52 -63 l-3 -30 81 0 c67 0 80 3 80 16 0 13 -17
20 -65 30 -36 7 -65 16 -65 20 0 5 15 19 33 33 52 40 128 37 214 -9 78 -41 93
-43 129 -12 29 25 26 47 -7 47 -11 0 -22 7 -26 15 -3 9 -26 30 -51 47 -40 27
-43 32 -26 39 16 6 12 10 -26 27 -56 25 -132 34 -185 21z"/>
<path d="M220 2320 c0 -5 -15 -10 -34 -10 -19 0 -37 -4 -41 -9 -3 -5 -19 -12
-35 -16 -17 -4 -30 -10 -30 -15 0 -5 -9 -11 -19 -15 -11 -3 -29 -24 -41 -47
-21 -41 -21 -42 -2 -67 28 -39 69 -38 131 0 55 35 46 33 231 26 25 -1 54 2 64
6 18 7 16 11 -19 47 -36 37 -37 40 -16 40 18 0 20 2 9 13 -23 21 -57 37 -78
37 -11 0 -20 5 -20 10 0 6 -22 10 -50 10 -27 0 -50 -4 -50 -10z"/>
<path d="M220 2073 c-14 -9 -31 -25 -38 -35 -7 -9 -18 -23 -25 -30 -18 -19
-47 -83 -47 -105 0 -10 -5 -24 -11 -30 -19 -19 10 -213 33 -213 4 0 8 -5 8
-11 0 -18 61 -90 102 -119 20 -15 34 -30 30 -34 -3 -4 1 -4 11 0 10 3 17 1 17
-5 0 -6 9 -11 20 -11 11 0 20 -4 20 -8 0 -5 6 -9 13 -10 33 -2 94 -15 112 -23
11 -4 38 -10 60 -11 l40 -3 -1 -102 c0 -56 -5 -112 -11 -125 -41 -84 -37 -134
9 -110 13 6 48 19 78 28 66 20 84 35 118 94 14 25 34 51 44 58 10 7 18 20 18
28 0 8 5 14 11 14 7 0 8 -11 4 -29 -5 -24 -2 -32 14 -41 12 -6 21 -17 21 -25
0 -8 6 -15 14 -15 8 0 16 -7 20 -15 3 -8 12 -15 21 -15 8 0 15 -6 15 -14 0 -7
7 -19 15 -26 14 -12 13 -16 -8 -39 -30 -32 -57 -83 -57 -108 0 -23 -37 -56
-52 -47 -6 4 -8 3 -5 -3 4 -5 -5 -16 -18 -23 -44 -23 -29 -70 21 -70 19 0 34
-4 34 -10 0 -5 18 -10 41 -10 24 0 38 4 34 10 -6 10 33 14 108 10 27 -1 45 5
68 25 31 25 52 28 31 3 -13 -16 -4 -68 12 -68 6 0 22 7 34 16 26 18 31 0 6
-27 -13 -14 -13 -20 -2 -38 13 -21 48 -29 48 -11 0 6 7 10 17 10 15 0 14 -2
-2 -20 -11 -13 -15 -27 -11 -44 4 -16 0 -30 -10 -41 -9 -9 -14 -18 -11 -21 6
-6 25 7 62 44 29 29 41 13 21 -26 -8 -16 -13 -31 -11 -34 3 -2 -22 -33 -56
-67 -41 -43 -65 -61 -76 -57 -21 9 -53 -2 -53 -18 0 -19 41 -54 73 -61 15 -4
30 -11 33 -16 3 -5 49 -9 103 -9 91 0 100 2 114 22 14 20 18 21 27 8 9 -14 9
-23 -7 -74 -4 -12 7 -6 32 18 38 37 62 43 57 12 -2 -9 1 -24 7 -33 6 -12 3
-26 -15 -52 -29 -42 -22 -55 10 -18 23 27 69 50 80 40 3 -3 3 -17 0 -29 -7
-29 5 -30 39 -4 33 26 37 25 37 -6 0 -17 6 -28 20 -31 11 -3 18 -9 15 -13 -2
-4 13 -7 35 -7 41 0 51 12 28 35 -6 6 -8 15 -4 19 4 5 16 -3 27 -17 45 -60 55
-70 72 -70 10 0 15 5 12 10 -3 6 3 10 15 10 12 0 18 -5 15 -10 -4 -6 8 -10 30
-10 22 0 34 4 30 10 -3 6 4 10 17 10 18 0 20 -2 8 -10 -12 -8 -9 -10 11 -10
33 0 45 26 24 50 -8 9 -15 22 -15 28 0 22 25 12 45 -18 24 -36 40 -43 67 -29
11 6 26 8 34 5 8 -3 14 -1 14 4 0 6 11 10 25 10 14 0 26 6 27 13 0 6 2 19 2
27 1 10 10 14 30 12 22 -2 35 4 57 30 31 36 36 57 17 76 -9 9 -9 15 -1 23 7 7
13 7 17 0 10 -15 36 -1 36 19 0 11 5 22 10 25 6 3 10 22 10 41 0 19 5 34 10
34 6 0 10 9 10 20 0 11 -4 20 -10 20 -5 0 -10 12 -10 27 0 33 -25 62 -49 56
-14 -4 -18 -15 -18 -62 0 -33 -7 -71 -16 -91 -12 -22 -14 -37 -7 -45 27 -32
-41 -25 -107 11 l-41 24 -40 -40 c-37 -37 -72 -52 -72 -31 0 8 30 88 53 141 6
14 9 30 8 35 -2 6 -2 61 -2 123 2 95 0 112 -14 112 -19 0 -19 14 -1 30 24 19
7 40 -33 40 -28 0 -44 -7 -66 -30 -16 -16 -35 -30 -42 -30 -16 0 -16 -18 2
-100 22 -102 -11 -219 -78 -283 l-30 -27 18 -56 c9 -30 15 -58 12 -61 -4 -3
-24 30 -45 73 -26 53 -43 78 -54 76 -20 -3 -64 42 -72 74 -4 15 -2 32 5 40 9
11 8 14 -4 14 -8 0 -22 3 -31 6 -12 5 -16 0 -16 -20 0 -35 -15 -33 -30 4 -7
17 -20 30 -30 30 -10 0 -25 11 -34 25 -15 23 -15 25 5 36 12 6 36 8 55 4 36
-6 42 2 24 36 -10 18 -13 18 -33 4 -36 -25 -99 -19 -140 13 -34 27 -34 29 -15
41 15 9 23 10 31 2 16 -16 54 -13 61 5 9 24 7 28 -7 15 -10 -8 -16 -8 -24 0
-14 14 -5 39 14 39 8 0 29 11 46 24 18 14 44 29 59 35 20 7 25 15 21 30 -4 15
-1 21 10 21 8 0 33 21 54 48 54 64 57 71 42 89 -11 13 -10 17 6 29 18 13 18
15 0 47 -34 63 -43 71 -60 57 -13 -10 -18 -11 -28 -1 -9 10 -8 15 6 25 22 17
22 25 -6 58 -33 40 -62 24 -72 -38 -16 -110 -58 -165 -220 -292 l-29 -23 -8
21 c-10 27 -25 18 -33 -19 -3 -16 -13 -35 -21 -42 -13 -11 -14 -6 -8 42 4 30
11 56 16 57 4 2 -3 17 -17 34 -14 16 -25 34 -25 39 0 25 -20 5 -26 -26 -7 -38
-34 -70 -34 -41 0 9 7 32 15 52 13 31 13 36 0 41 -8 3 -15 11 -15 18 0 8 -5
26 -11 42 l-10 28 -30 -48 c-16 -26 -34 -47 -39 -47 -12 0 24 75 40 85 17 10
11 25 -10 25 -12 0 -24 9 -29 23 -5 12 -22 34 -38 49 l-28 27 -40 -54 c-22
-30 -43 -55 -46 -55 -14 0 9 59 35 93 31 40 31 44 10 49 -12 2 3 20 49 61 77
68 168 184 216 278 36 69 37 108 3 94 -20 -9 -52 -9 -60 0 -6 6 11 20 33 28
11 5 -70 87 -86 87 -5 0 -18 -5 -29 -12 -26 -16 -36 -3 -21 26 12 21 11 26 -8
45 -25 25 -45 19 -36 -10 3 -10 1 -53 -4 -96 -14 -102 -54 -180 -136 -268 -54
-58 -67 -67 -76 -55 -6 8 -12 11 -15 5 -15 -35 -46 -75 -59 -75 -11 0 -9 10
11 45 l25 45 -24 0 c-19 0 -25 7 -33 37 l-9 36 -25 -38 c-27 -41 -55 -63 -66
-53 -3 4 6 22 20 41 27 35 38 73 14 49 -19 -19 -28 -14 -28 13 0 26 2 26 -105
44 -163 29 -167 30 -255 94 -118 86 -143 122 -143 207 1 38 8 67 23 93 25 42
24 44 -10 20z"/>
<path d="M440 1972 c-50 -25 -76 -81 -61 -132 16 -54 65 -94 108 -87 123 20
151 184 38 227 -36 14 -44 13 -85 -8z"/>
</g>
</svg>
